<?xml version="1.0" standalone="no"?>
<!DOCTYPE svg PUBLIC "-//W3C//DTD SVG 20010904//EN"
 "http://www.w3.org/TR/2001/REC-SVG-20010904/DTD/svg10.dtd">
<svg version="1.0" xmlns="http://www.w3.org/2000/svg"
 width="300.000000pt" height="70.000000pt" viewBox="0 0 300.000000 70.000000"
 preserveAspectRatio="xMidYMid meet">
<metadata>
Created by potrace 1.10, written by Peter Selinger 2001-2011
</metadata>
<g transform="translate(0.000000,70.000000) scale(0.100000,-0.100000)"
fill="#1096d2" stroke="none">
<path d="M307 557 c-86 -28 -147 -109 -147 -197 0 -100 67 -179 175 -206 l25
-6 0 111 0 111 28 -6 c52 -12 90 -44 116 -96 l26 -51 21 48 c30 67 24 157 -14
212 -49 71 -149 106 -230 80z m141 -45 c46 -21 84 -81 90 -141 5 -56 -8 -71
-36 -41 -27 29 -87 60 -116 60 -38 0 -49 -24 -50 -106 -1 -62 -4 -75 -19 -80
-24 -8 -61 18 -97 68 -49 68 -37 150 31 215 56 52 121 60 197 25z"/>
<path d="M1485 380 l0 -140 28 0 c27 0 28 2 22 30 -4 19 -2 37 6 46 11 13 16
9 41 -30 23 -38 33 -46 58 -46 l31 0 -42 61 -41 61 38 39 38 39 -31 0 c-24 0
-39 -9 -68 -42 l-37 -43 6 83 5 82 -27 0 -28 0 1 -140z"/>
<path d="M719 491 c-17 -13 -23 -29 -23 -56 0 -45 17 -59 92 -81 49 -14 53
-18 50 -42 -3 -23 -8 -27 -40 -30 -29 -2 -40 2 -50 17 -17 27 -58 28 -58 2 0
-57 133 -86 178 -38 24 26 29 74 10 100 -7 9 -38 25 -68 34 -47 16 -55 21 -55
43 0 21 5 26 32 28 24 2 35 -2 45 -17 15 -25 58 -28 58 -6 0 9 -11 27 -25 40
-31 32 -110 35 -146 6z"/>
<path d="M1790 506 c0 -2 21 -63 46 -135 46 -130 47 -131 78 -131 31 0 31 0
78 135 l46 135 -28 0 c-26 0 -29 -5 -61 -110 -18 -61 -36 -105 -39 -98 -4 7
-20 57 -36 111 -27 93 -30 97 -56 97 -15 0 -28 -2 -28 -4z"/>
<path d="M940 466 c0 -16 -6 -26 -14 -26 -7 0 -16 -9 -19 -20 -4 -15 0 -20 14
-20 17 0 19 -8 19 -68 0 -77 9 -92 57 -92 26 0 33 4 33 20 0 13 -7 20 -20 20
-17 0 -20 7 -20 44 0 24 -3 51 -6 60 -5 12 0 16 20 16 19 0 26 5 26 20 0 15
-7 20 -25 20 -20 0 -24 5 -22 22 1 17 -4 24 -20 26 -19 3 -23 -1 -23 -22z"/>
<path d="M2330 443 c-8 -3 -24 -13 -34 -22 -18 -15 -19 -15 -13 2 5 13 1 17
-18 17 -25 0 -25 0 -25 -100 0 -100 0 -100 25 -100 24 0 25 2 25 71 0 69 1 71
30 82 21 8 30 18 30 34 0 13 -1 23 -2 22 -2 0 -10 -3 -18 -6z"/>
<path d="M2421 439 c-47 -19 -67 -71 -50 -133 5 -20 18 -40 29 -46 26 -14 83
-13 98 2 9 9 12 6 12 -13 0 -14 -5 -30 -12 -37 -14 -14 -50 -16 -63 -3 -12 11
-65 23 -65 16 0 -37 69 -71 120 -60 57 12 70 44 70 166 l0 109 -25 0 c-14 0
-25 -5 -25 -11 0 -5 -10 -3 -22 5 -25 18 -33 19 -67 5z m71 -46 c20 -18 24
-73 6 -91 -7 -7 -24 -12 -39 -12 -33 0 -52 40 -37 80 15 42 40 50 70 23z"/>
<path d="M2653 443 c-62 -12 -87 -129 -38 -178 33 -34 102 -35 133 -2 12 13
22 26 22 30 0 11 -48 8 -55 -3 -9 -14 -48 -13 -63 2 -28 28 -13 38 53 38 l65
0 0 29 c0 54 -57 95 -117 84z m55 -45 c24 -24 13 -38 -28 -38 -43 0 -55 20
-22 39 23 14 36 13 50 -1z"/>
<path d="M1089 427 c-24 -18 -39 -52 -39 -87 0 -35 15 -69 39 -87 20 -15 86
-17 113 -2 28 15 51 74 42 113 -11 52 -41 76 -93 76 -25 0 -53 -6 -62 -13z
m105 -59 c15 -43 -3 -82 -39 -86 -47 -6 -71 49 -44 99 16 31 71 22 83 -13z"/>
<path d="M1309 427 c-46 -35 -52 -110 -13 -156 22 -26 33 -31 70 -31 34 0 51
6 69 25 14 13 25 29 25 35 0 15 -46 12 -60 -5 -31 -37 -80 -7 -80 49 0 26 31
66 50 66 6 0 18 -9 27 -20 18 -21 63 -28 63 -10 0 6 -11 22 -25 35 -18 19 -35
25 -67 25 -24 0 -50 -6 -59 -13z"/>
<path d="M2056 421 c-41 -45 -38 -135 7 -166 36 -25 94 -19 125 12 24 25 25
28 8 31 -10 2 -29 -1 -41 -8 -33 -18 -69 -9 -73 18 -3 21 0 22 62 22 60 0 66
2 66 20 0 29 -26 76 -45 84 -34 13 -92 6 -109 -13z m85 -21 c36 -20 23 -40
-27 -40 -46 0 -48 3 -21 38 12 15 22 15 48 2z"/>
<path d="M1670 350 c0 -18 7 -20 60 -20 53 0 60 2 60 20 0 18 -7 20 -60 20
-53 0 -60 -2 -60 -20z"/>
</g>
</svg>
